Coordinates
version=1
nRows=15
nColumns=42
inDegrees=yes

Units are S.I. units (second, meters, Newtons, ...)
If the header above contains a line with 'inDegrees', this indicates whether rotational values are in degrees (yes) or radians (no).

endheader
time	pelvis_tilt	pelvis_list	pelvis_rotation	pelvis_tx	pelvis_ty	pelvis_tz	hip_flexion_r	hip_adduction_r	hip_rotation_r	knee_angle_r	knee_angle_r_beta	ankle_angle_r	subtalar_angle_r	mtp_angle_r	hip_flexion_l	hip_adduction_l	hip_rotation_l	knee_angle_l	knee_angle_l_beta	ankle_angle_l	subtalar_angle_l	mtp_angle_l	lumbar_extension	lumbar_bending	lumbar_rotation	sh_tx_r	sh_ty_r	sh_tz_r	sh_plane_elev_r	sh_elev_r	sh_axial_rot_r	elbow_flex_r	pro_sup_r	sh_tx_l	sh_ty_l	sh_tz_l	sh_plane_elev_l	sh_elev_l	sh_axial_rot_l	elbow_flex_l	pro_sup_l
      2.73333330	     -5.15394056	     -1.23440327	      5.13710174	      0.24630954	      0.95247806	     -0.06177792	      1.09075418	     -5.62638005	    -12.60659075	      0.49236606	      0.00859341	      0.88784624	     -9.12718865	     -7.49999987	      2.80620729	     -5.28940263	     -2.68838166	      1.71703633	      0.02996794	     10.37435861	      3.48865856	     -7.49999987	      2.93572920	      4.37211784	      0.70320751	     -0.02596045	     -0.00505058	     -0.00654886	    -20.98454468	      7.22545815	      6.21419612	     32.48287455	    110.83844862	     -0.02759818	      0.00628732	     -0.00709292	     38.04265561	     99.85558046	      9.94114168	      5.34958532	      3.02551276
      2.75000000	     -5.11506822	     -1.23247159	      5.00689534	      0.24611392	      0.95269998	     -0.06156330	      1.08108373	     -5.63096951	    -12.47980542	      0.48178147	      0.00840867	      0.80215003	     -9.22427380	     -7.49999987	      2.73106585	     -5.31653070	     -2.75464726	      1.71266854	      0.02989170	     10.27804852	      3.17777166	     -7.49999987	      2.80098917	      4.28104643	      1.53199806	     -0.02798862	     -0.00568847	     -0.00661953	    -20.23374747	      7.52555042	      6.22222933	     32.77466022	    111.31747228	     -0.02625497	      0.00596424	     -0.00702136	     38.82593545	    100.52368333	     10.10919368	      5.28246378	      2.48529992
      2.76666670	     -5.15722514	     -1.24222975	      4.98511271	      0.24635616	      0.95292010	     -0.06166155	      1.12999258	     -5.61930527	    -12.48026863	      0.47911670	      0.00836216	      0.72141032	     -9.25876041	     -7.49999987	      2.74477611	     -5.38059814	     -2.85750151	      1.70003280	      0.02967117	     10.11380427	      3.06188663	     -7.49999987	      2.89804721	      4.30143250	      1.16552117	     -0.02654957	     -0.00509624	     -0.00654672	    -19.91097970	      7.51342275	      6.40648466	     32.85376838	    110.61949810	     -0.02658173	      0.00564392	     -0.00706955	     38.44273800	    100.93406002	      9.82332039	      5.12518555	      2.75342960
      2.78333330	     -5.19838025	     -1.26080187	      4.89729552	      0.24637218	      0.95587546	     -0.06168956	      1.22879661	     -5.59723797	    -12.39054869	      0.48857693	      0.00852728	      0.68000333	     -9.18592946	     -7.49999987	      2.73394860	     -5.43015257	     -3.02624435	      1.69665021	      0.02961213	     10.05096547	      2.90005685	     -7.49999987	      2.94544822	      4.25902768	      1.67667754	     -0.02829798	     -0.00512328	     -0.00653652	    -18.74152940	      7.71203936	      5.95384647	     32.45146286	    111.00109945	     -0.02577025	      0.00572326	     -0.00702672	     39.45413832	    101.32603536	      9.01480266	      4.77762315	      2.47149166
      2.80000000	     -5.22154424	     -1.26170969	      4.94768524	      0.24648353	      0.95286034	     -0.06169870	      1.26566654	     -5.59545443	    -12.36307289	      0.50355006	      0.00878861	      0.73414606	     -9.18528879	     -7.49999987	      2.74479199	     -5.44491461	     -3.11600450	      1.72809094	      0.03016088	     10.06879088	      2.82954313	     -7.49999987	      2.98893499	      4.35252975	      1.64411113	     -0.02846669	     -0.00417094	     -0.00647751	    -18.72030400	      7.70237770	      5.96348114	     32.48264836	    110.96241835	     -0.02525740	      0.00670767	     -0.00704608	     39.45073203	    101.44191126	      9.01023587	      4.81856318	      2.59659119
      2.81666670	     -5.23976009	     -1.25481211	      4.99623885	      0.24630926	      0.95299855	     -0.06143673	      1.26299876	     -5.59674806	    -12.23060673	      0.47592554	      0.00830647	      0.75621998	     -9.02056345	     -7.49999987	      2.76336725	     -5.45669731	     -3.13024802	      1.75958698	      0.03071059	      9.84884118	      2.49799130	     -7.49999987	      2.99191380	      4.28168745	      1.51874114	     -0.02809276	     -0.00421444	     -0.00649484	    -18.68851267	      7.80206643	      6.50495034	     32.87400188	    111.46568044	     -0.02582284	      0.00529206	     -0.00698369	     39.70936671	    102.28821411	      8.45829555	      4.47053592	      2.52677307
      2.83333330	     -5.22680760	     -1.22546140	      5.07321155	      0.24633246	      0.95606710	     -0.06146448	      1.23263194	     -5.62397100	    -12.23984005	      0.46567005	      0.00812748	      0.83477694	     -8.85228700	     -7.49999987	      2.75730268	     -5.42788641	     -3.14008285	      1.76043261	      0.03072535	      9.77876705	      2.54219974	     -7.49999987	      2.93672035	      4.29906346	      1.34296211	     -0.02838891	     -0.00357871	     -0.00647251	    -17.94763975	      7.77268689	      5.72623434	     32.71948178	    111.93389383	     -0.02571039	      0.00535052	     -0.00696581	     39.57624109	    102.53948370	      7.87626176	      4.52144483	      2.59049130
      2.85000000	     -5.24323001	     -1.21837265	      5.14528322	      0.24626739	      0.95295095	     -0.06146012	      1.26028136	     -5.64681387	    -12.21764438	      0.51663266	      0.00901694	      0.91174941	     -8.86111528	     -7.49999987	      2.80560367	     -5.42539601	     -3.20350437	      1.79513979	      0.03133110	      9.81244855	      2.49005283	     -7.49999987	      2.95083014	      4.41330833	      1.34175568	     -0.02893535	     -0.00258130	     -0.00645331	    -17.92143185	      7.69362590	      5.76164367	     32.71352958	    111.86889723	     -0.02580027	      0.00648070	     -0.00691346	     39.54842022	    102.61175757	      7.87144090	      4.59687569	      2.73534382
      2.86666670	     -5.23280625	     -1.20822488	      5.19783979	      0.24621147	      0.95608949	     -0.06145557	      1.20506634	     -5.63898901	    -12.11116389	      0.45005527	      0.00785495	      1.01223876	     -8.60203167	     -7.49999987	      2.80552880	     -5.43527597	     -3.18987953	      1.74178635	      0.03039991	      9.51443745	      2.37965425	     -7.49999987	      2.87307943	      4.26888881	      1.01046305	     -0.02768544	     -0.00328603	     -0.00643272	    -17.94799539	      7.72157271	      6.16890543	     32.79848918	    111.93919462	     -0.02559465	      0.00563116	     -0.00687501	     39.34767194	    103.26014813	      7.84234667	      4.38823684	      2.59181783
      2.88333330	     -5.20153954	     -1.15929069	      5.25959750	      0.25027528	      0.95309849	     -0.06627727	      1.08191470	     -5.76637144	    -12.15510394	      0.44453580	      0.00775861	      0.99254239	     -8.48011574	     -7.49999987	      2.76875311	     -5.33249221	     -3.23895775	      1.74861107	      0.03051902	      9.49956458	      2.43571459	     -7.49999987	      2.86250343	      4.37429822	      0.91619585	     -0.02820801	     -0.00302364	     -0.00645728	    -18.07989694	      7.93223377	      6.12355342	     32.64061510	    111.96634063	     -0.02662785	      0.00489878	     -0.00690421	     39.18518188	    103.70824879	      7.79962986	      4.51908420	      2.61134641
      2.90000000	     -5.16744730	     -1.12164696	      5.29178103	      0.25033556	      0.95618290	     -0.06627460	      0.95768148	     -5.86840081	    -12.24266466	      0.44203182	      0.00771491	      1.09211018	     -8.19229905	     -7.49999987	      2.66831614	     -5.23860852	     -3.23409565	      1.66520990	      0.02906340	      9.43986495	      2.49780554	     -7.49999987	      2.88668748	      4.47580630	      0.80739073	     -0.02841758	     -0.00307238	     -0.00643940	    -18.51409999	      8.05348553	      6.18293669	     32.54177683	    112.17486008	     -0.02651867	      0.00505054	     -0.00688810	     38.96198458	    103.81810948	      8.05859774	      4.63108684	      2.65400239
      2.91666670	     -5.17515139	     -1.09863097	      5.33661280	      0.25011814	      0.95295589	     -0.06615684	      0.89071892	     -5.96708748	    -12.20763043	      0.44078305	      0.00769312	      1.11469791	     -8.17271019	     -7.49999987	      2.65205096	     -5.16196148	     -3.25390034	      1.67681181	      0.02926589	      9.48356511	      2.46779022	     -7.49999987	      2.95413734	      4.53022095	      0.79503084	     -0.02901945	     -0.00314557	     -0.00639594	    -18.52851561	      8.15338480	      6.20140301	     32.51134475	    112.13533779	     -0.02667374	      0.00600489	     -0.00679437	     38.90926709	    103.95625148	      8.05731698	      4.73990069	      2.72910921
      2.93333330	     -5.28139344	     -1.10038302	      5.29621013	      0.24607454	      0.95588671	     -0.06137218	      1.01575423	     -5.95499622	    -12.11858185	      0.41779232	      0.00729185	      1.20704544	     -8.08163934	     -7.49999987	      2.75510323	     -5.15789359	     -3.24850118	      1.65044772	      0.02880575	      9.53839028	      2.43087808	     -7.49999987	      3.04536180	      4.44095240	      0.84329627	     -0.02885182	     -0.00340448	     -0.00640872	    -18.39572986	      7.99931729	      6.26686126	     32.66093658	    111.74152986	     -0.02507169	      0.00670159	     -0.00672485	     38.69556337	    104.17340813	      8.02230017	      5.20442510	      3.23510962
      2.95000000	     -5.17514172	     -1.06408870	      5.26846694	      0.24588148	      0.95597030	     -0.06109410	      0.94276823	     -5.96053580	    -12.11808171	      0.42385750	      0.00739771	      1.33783149	     -7.90112958	     -7.49999987	      2.61564838	     -5.14650052	     -3.36465226	      1.56286352	      0.02727711	      9.41577068	      2.51049612	     -7.49999987	      2.95374194	      4.44951095	      0.39356296	     -0.02585144	     -0.00337240	     -0.00635233	    -18.58766789	      7.79918725	      6.65013123	     32.82554045	    112.38539209	     -0.02454925	      0.00696364	     -0.00671840	     37.91293723	    104.34466769	      8.44474734	      5.25216797	      2.60365922
      2.96666670	     -5.20589236	     -1.08578166	      5.25247356	      0.24618937	      0.95276613	     -0.06140829	      1.00593664	     -5.90819797	    -12.03040720	      0.41539586	      0.00725003	      1.39224302	     -7.90228210	     -7.49999987	      2.67977247	     -5.18663853	     -3.28728492	      1.54797895	      0.02701733	      9.40988772	      2.51293423	     -7.49999987	      3.04362672	      4.49441179	      0.43770633	     -0.02520637	     -0.00333910	     -0.00635730	    -18.50134725	      7.60322019	      6.62858843	     32.91516842	    112.37068675	     -0.02306433	      0.00715285	     -0.00664675	     37.84620871	    104.82140798	      8.41304412	      5.13587639	      2.62719966
